<?xml version="1.0" encoding="utf-8"?>
<!-- Generator: Adobe Illustrator 20.1.0, SVG Export Plug-In . SVG Version: 6.00 Build 0)  -->
<svg version="1.1" id="Layer_1" xmlns="http://www.w3.org/2000/svg" xmlns:xlink="http://www.w3.org/1999/xlink" x="0px" y="0px"
	 viewBox="0 0 30 30" style="enable-background:new 0 0 30 30;" xml:space="preserve">
<style type="text/css">
	.st0{fill:#00202E;}
	.st1{fill:#FFFFFF;stroke:#00202E;stroke-miterlimit:10;}
	.st2{fill:#C7BA7A;stroke:#00202E;stroke-miterlimit:10;}
	.st3{fill:#FFFFFF;}
	.st4{fill:#C8BB7A;}
	.st5{fill:#B8898B;}
	.st6{fill:#7D9DB0;stroke:#00202E;stroke-miterlimit:10;}
	.st7{fill:#C8BB7A;stroke:#00202E;stroke-miterlimit:10;}
	.st8{fill:#B5B7B9;stroke:#00202E;stroke-miterlimit:10;}
	.st9{fill:#826347;}
	.st10{fill:#7D9CAF;}
	.st11{fill:#C7BA7A;}
</style>
<g>
	<g>
		<path class="st0" d="M14.1,2.5L2.1,14.6l7.5,1.8l0.9-1.7l0.9,0.5l-1.3,2.3l-7-1.7l-0.6,3.6C3.1,21,3.9,22.4,5,23.5
			c1.5,0.2,9,0.7,12-3.5l0.8,0.6c-2.5,3.4-7.4,4-10.5,4c-0.4,0-0.8,0-1.2,0c2.2,1.8,4.9,2.9,8,2.9c6.9,0,12.5-5.6,12.5-12.5
			S21.1,2.5,14.1,2.5z"/>
	</g>
	<path class="st1" d="M15,11.8l-2.1-2.1L15,7.6c3-3,7.9-3,10.9,0l2.1,2.1l-2.1,2.1C22.8,14.8,18,14.8,15,11.8z"/>
	<circle class="st2" cx="20.4" cy="8.1" r="3.7"/>
	<circle class="st0" cx="20.4" cy="8.2" r="1.5"/>
</g>
</svg>
