<?xml version="1.0" encoding="utf-8"?>
<!-- Generator: Adobe Illustrator 20.1.0, SVG Export Plug-In . SVG Version: 6.00 Build 0)  -->
<svg version="1.1" id="Layer_1" xmlns="http://www.w3.org/2000/svg" xmlns:xlink="http://www.w3.org/1999/xlink" x="0px" y="0px"
	 viewBox="0 0 30 30" style="enable-background:new 0 0 30 30;" xml:space="preserve">
<style type="text/css">
	.st0{fill:#00202E;}
	.st1{fill:#FFFFFF;stroke:#00202E;stroke-miterlimit:10;}
	.st2{fill:#C7BA7A;stroke:#00202E;stroke-miterlimit:10;}
	.st3{fill:#FFFFFF;}
	.st4{fill:#C8BB7A;}
	.st5{fill:#B8898B;}
	.st6{fill:#7D9DB0;stroke:#00202E;stroke-miterlimit:10;}
	.st7{fill:#C8BB7A;stroke:#00202E;stroke-miterlimit:10;}
	.st8{fill:#B5B7B9;stroke:#00202E;stroke-miterlimit:10;}
	.st9{fill:#826347;}
	.st10{fill:#7D9CAF;}
	.st11{fill:#C7BA7A;}
</style>
<g>
	<g>
		<path class="st0" d="M27.5,15c0,6.9-5.6,12.5-12.5,12.5S2.5,21.9,2.5,15L15,2.5C21.9,2.5,27.5,8.1,27.5,15z"/>
	</g>
	<circle class="st6" cx="9.9" cy="10" r="3.2"/>
	<circle class="st0" cx="15.5" cy="15.3" r="6"/>
	<path class="st3" d="M10.4,18.4c2.5,1.2,4.8,1,6.8-0.8c1.1-0.9,1.7-2.2,1.9-3.6c0.2-1.4-0.1-2.7-0.9-4c1.6,0.6,3.4,2.9,3.2,5.6
		c-0.2,2.9-2.3,5.1-5,5.6C13.6,21.7,11,19.9,10.4,18.4z"/>
</g>
</svg>
