<?xml version="1.0" encoding="utf-8"?>
<!-- Generator: Adobe Illustrator 20.1.0, SVG Export Plug-In . SVG Version: 6.00 Build 0)  -->
<svg version="1.1" id="Layer_1" xmlns="http://www.w3.org/2000/svg" xmlns:xlink="http://www.w3.org/1999/xlink" x="0px" y="0px"
	 viewBox="0 0 20 20" style="enable-background:new 0 0 20 20;" xml:space="preserve">
<style type="text/css">
	.st0{fill:#00202E;}
	.st1{fill:#FFFFFF;stroke:#00202E;stroke-miterlimit:10;}
	.st2{fill:#C7BA7A;stroke:#00202E;stroke-miterlimit:10;}
	.st3{fill:#FFFFFF;}
	.st4{fill:#C8BB7A;}
	.st5{fill:#B8898B;}
	.st6{fill:#7D9DB0;stroke:#00202E;stroke-miterlimit:10;}
	.st7{fill:#C8BB7A;stroke:#00202E;stroke-miterlimit:10;}
	.st8{fill:#B5B7B9;stroke:#00202E;stroke-miterlimit:10;}
	.st9{fill:#826347;}
	.st10{fill:#7D9CAF;}
	.st11{fill:#C7BA7A;}
</style>
<path class="st10" d="M10,2.5c-4.1,0-7.5,3.4-7.5,7.5c0,4.1,3.4,7.5,7.5,7.5c4.1,0,7.5-3.4,7.5-7.5C17.5,5.9,14.1,2.5,10,2.5z
	 M11.6,10h-1.1c0,1.7,0,3.7,0,3.7H9c0,0,0-2,0-3.7H8.3V8.7H9V7.8c0-0.6,0.3-1.6,1.6-1.6l1.2,0v1.3c0,0-0.7,0-0.8,0
	c-0.1,0-0.3,0.1-0.3,0.4v0.8h1.2L11.6,10z"/>
</svg>
