<?xml version="1.0" encoding="utf-8"?>
<!-- Generator: Adobe Illustrator 20.1.0, SVG Export Plug-In . SVG Version: 6.00 Build 0)  -->
<svg version="1.1" id="Layer_1" xmlns="http://www.w3.org/2000/svg" xmlns:xlink="http://www.w3.org/1999/xlink" x="0px" y="0px"
	 viewBox="0 0 30 30" style="enable-background:new 0 0 30 30;" xml:space="preserve">
<style type="text/css">
	.st0{fill:#00202E;}
	.st1{fill:#FFFFFF;stroke:#00202E;stroke-miterlimit:10;}
	.st2{fill:#C7BA7A;stroke:#00202E;stroke-miterlimit:10;}
	.st3{fill:#FFFFFF;}
	.st4{fill:#C8BB7A;}
	.st5{fill:#B8898B;}
	.st6{fill:#7D9DB0;stroke:#00202E;stroke-miterlimit:10;}
	.st7{fill:#C8BB7A;stroke:#00202E;stroke-miterlimit:10;}
	.st8{fill:#B5B7B9;stroke:#00202E;stroke-miterlimit:10;}
	.st9{fill:#826347;}
	.st10{fill:#7D9CAF;}
	.st11{fill:#C7BA7A;}
</style>
<path class="st10" d="M15,2.5C8.1,2.5,2.5,8.1,2.5,15c0,6.9,5.6,12.5,12.5,12.5c6.9,0,12.5-5.6,12.5-12.5C27.5,8.1,21.9,2.5,15,2.5z
	 M17.7,15h-1.8c0,2.8,0,6.2,0,6.2h-2.6c0,0,0-3.4,0-6.2h-1.2v-2.2h1.2v-1.4c0-1,0.5-2.6,2.6-2.6l1.9,0v2.1c0,0-1.2,0-1.4,0
	c-0.2,0-0.6,0.1-0.6,0.6v1.3h2L17.7,15z"/>
</svg>
