<svg id="Layer_1" data-name="Layer 1" xmlns="http://www.w3.org/2000/svg" viewBox="0 0 62.6 30"><defs><style>.cls-1{fill:#a0a2a5;}.cls-2{fill:#fff;}</style></defs><title>nav-icons</title><path class="cls-1" d="M15.5,2.5H60.11a0,0,0,0,1,0,0v25a0,0,0,0,1,0,0H15.5A12.5,12.5,0,0,1,3,15v0A12.5,12.5,0,0,1,15.5,2.5Z"/><path class="cls-2" d="M15.23,14.87h6.44v.21a5.34,5.34,0,1,1-.49-2.16H19a3.15,3.15,0,0,0-2.64-1.39,3.43,3.43,0,1,0,.09,6.85,3.25,3.25,0,0,0,2.92-1.81H15.23Z"/><path class="cls-2" d="M37.2,17.14a5,5,0,0,1-4.56,2.95,5.2,5.2,0,0,1-5.14-5.17,5.14,5.14,0,0,1,5.1-5.09,5.06,5.06,0,0,1,4.65,3H35.18a3.25,3.25,0,0,0-5.85,2.1,3.44,3.44,0,0,0,3.28,3.44,3.24,3.24,0,0,0,2.48-1.24Z"/><path class="cls-2" d="M41.78,10h1.43l4.13,9.86h-2l-1.05-2.55H40.74l-1.05,2.55h-2Zm-.43,5.6h2.27l-1.12-3h0Z"/><path class="cls-2" d="M49.08,10H50.9v8.16h3v1.71H49.08Z"/></svg>