<svg id="Layer_1" data-name="Layer 1" xmlns="http://www.w3.org/2000/svg" viewBox="0 0 75.45 30"><defs><style>.cls-1{fill:#a0a2a5;}.cls-2{fill:#fff;}</style></defs><title>gmaps</title><path class="cls-1" d="M15.45,2.5H72.54a0,0,0,0,1,0,0v25a0,0,0,0,1,0,0H15.45A12.5,12.5,0,0,1,3,15v0A12.5,12.5,0,0,1,15.45,2.5Z"/><path class="cls-2" d="M15.18,14.86h6.44v.21a5.33,5.33,0,1,1-.49-2.16H18.94a3.15,3.15,0,0,0-2.64-1.39,3.43,3.43,0,1,0,.09,6.85,3.25,3.25,0,0,0,2.92-1.81H15.18Z"/><path class="cls-2" d="M27.83,10h2.53L33,17.49h0L35.62,10h2.53v9.86H36.32v-7.4h0l-2.52,7.4H32.22l-2.53-7.4h0v7.4H27.83Z"/><path class="cls-2" d="M43.86,10h1.43l4.13,9.86h-2l-1.05-2.55H42.82l-1.05,2.55h-2Zm-.43,5.6H45.7l-1.12-3h0Z"/><path class="cls-2" d="M51.15,10h2.48a3.93,3.93,0,0,1,2.89.79,2.92,2.92,0,0,1,.93,2.27,2.92,2.92,0,0,1-.93,2.27,3.93,3.93,0,0,1-2.89.79H53v3.76H51.15ZM53,14.42h.59c.79,0,2.07-.05,2.07-1.35s-1.25-1.35-2-1.35H53Z"/><path class="cls-2" d="M60.41,17.06a1.33,1.33,0,0,0,2.66.08c0-1-.65-1.2-1.88-1.67a2.88,2.88,0,0,1-2.35-2.84,2.8,2.8,0,0,1,2.89-2.81,2.9,2.9,0,0,1,2.92,2.81H62.79a1,1,0,0,0-1.11-1.11,1,1,0,0,0-1,1c0,.85.64,1,1.64,1.37a3.17,3.17,0,0,1,2.59,3,3.06,3.06,0,0,1-3.2,3.14,3.15,3.15,0,0,1-3.21-3Z"/></svg>