<?xml version="1.0" encoding="utf-8"?>
<!-- Generator: Adobe Illustrator 20.1.0, SVG Export Plug-In . SVG Version: 6.00 Build 0)  -->
<svg version="1.1" id="Layer_1" xmlns="http://www.w3.org/2000/svg" xmlns:xlink="http://www.w3.org/1999/xlink" x="0px" y="0px"
	 viewBox="0 0 130 110" style="enable-background:new 0 0 130 110;" xml:space="preserve">
<style type="text/css">
	.st0{fill:#00202E;}
	.st1{fill:#C7BA7A;}
	.st2{fill:#FFFFFF;}
	.st3{fill:#231F20;}
</style>
<g>
	<path class="st0" d="M118.4,55.1c2.4,0.9,8.1,3,8.1,3V4.2c0,0-122.5,0-122.8,0l0,25.4C4.7,30.5,6,31.7,7,32.5
		c1.7,1.4,3.4,2.9,5.2,4.3c0.5,0.4,0.6,0.7,0.4,1.3c-0.4,1-1.9,5.4-3.1,8.8c0-1.8,0-3.4,0-5.2c0-0.9-0.4-2.2-1.8-2
		c-0.8,0.1-1.2,0.7-1.2,1.9c0,1.7,0,5.9,0,5.9s1.3,0.8,2.3,1.5c-0.5,1.2-0.8,1.9-0.8,2.1c-1.6,0.4-1.9,1.4-2,3c0,0.8,0,1.7,0,2.5
		c0.1,1.8-0.4,3.1-1,4.8c-0.4,1-0.8,2.5-1.3,3.8l0,8.9c0.4-0.5,0.9-1,1.4-1.5c2.4-2.4,5.4-3.9,8.7-4.7C17,67,20.3,66.9,23.7,68
		c1.5,0.4,3.6,1.7,4.9,3.4l1.3-0.1c0,0-0.2-5.8,7.1-6.2c0.8,0,1.7,0,2.6,0.1c-1-2.7-0.8-5.4,0.9-7.9c1.4-2.1,3.4-3.4,5.9-4
		c4.5-1.1,10.2,0.9,11.6,6.6c0.1,0.4,0.2,1.9,0.2,1.9h1.1c0,0,4.3-7.3,12.6-7.3c7.3,0,9.1,7.3,9.5,9.2c-0.6,0.1-1.3,0.2-1.9,0.3
		c-0.3,0-0.6-0.1-0.9-0.3c-0.2-0.1-0.3-0.2-0.4-0.4c-1-1.3-2.1-1.5-3.7-1c-1.9,0.6-3.9,1-5.9,1.5c-0.5,0.1-0.7,0.3-0.7,0.8
		c0,0.3-0.1,0.7-0.1,1c-0.1,1.7-0.1,1.7-1.7,2.1c-12,3.5-23.9,7-35.9,10.4c-7.8,2.3-15.6,4.6-23.4,6.8c-0.9,0.3-2.2,0.5-3.3,0.8
		l0,12.6c0,0,2.9,0,7.8,0c0-0.1,0-0.3,0.1-0.5c0.2-1.2,0.8-2.2,1.8-2.9c1.6-1.1,3.6-0.5,4.7,1.4c0.5,0.9,0.7,1.5,0.6,1.8
		c0,0,0,0.1,0,0.2c1.4,0,2.8,0,4.3,0c0.1-2.3,1.6-4.2,3.6-4.7c1.1-0.3,2.1,0.1,2.9,0.8c0.7,0.5,1.2,1.2,1.5,2c0,0,0,0.1,0,0.1
		c0,0,0,0,0,0.1c0.1,0.3,0.2,0.6,0.3,1c0,0.2,0.1,0.5,0.1,0.8c5.2,0,11,0,17,0c0-0.1,0-0.1,0-0.2c0-0.1,0-0.1,0-0.2
		c0.3-2.1,1.2-3.9,3-5.1c2.3-1.5,5-0.9,6.8,1.4c0.8,1.1,1.3,2.3,1.5,3.6c0,0.1,0,0.2,0,0.3c0,0.1,0,0.2,0,0.3c1.9,0,3.9,0,5.8,0
		c0-0.1,0-0.1,0-0.2c0.3-2.8,1.3-4.8,3.3-6.2c2.4-1.8,5.4-1.5,7.6,0.7c1.6,1.6,2.3,3.5,2.5,5.8c11.4,0,39.2,0,39.2,0l8.5,7.4v-1.6
		c0,0-2.6-2.3-3.8-3.4c-5.6-4.9-11.1-9.8-16.7-14.7c-0.2-0.2-0.4-0.4-0.6-0.4c-1.8-0.4-2.4-1.6-2.7-3.2c-0.3-1.5-0.1-2.9,0.9-4.1
		c0.3-0.3,0.6-0.6,1-0.8c1.2-0.7,2.5-1.2,3.7-1.9c2.8-1.6,5.6-3.3,8.4-5l9.8-5.9v-1.5l-9,5.4c0-4.3,0-8.6,0-13
		C117.4,54.7,117.5,54.7,118.4,55.1z M36.8,55.4c0,0-4.8-1.3-7.7-2.1c-0.2-0.1-0.5,0.1-0.5,0.4c0,0.6,0,1.5,0,1.4l7.6,1.8l-0.2,0.7
		c0,0-5.2-1.2-6.9-1.6c-0.2-0.1-0.4,0.1-0.4,0.4v1.3c0,0.2,0.1,0.3,0.3,0.4c2.4,0.4,6.6,1,6.6,1l-0.2,0.7l-6.2-0.9
		c-0.2,0-0.4,0.1-0.4,0.4l0,1.3c0,0.2,0.1,0.3,0.3,0.4l5.7,0.7l-0.2,0.7l-5.4-0.6c-0.2,0-0.4,0.1-0.4,0.4v1.2c0,0.2,0.1,0.4,0.3,0.4
		l4.9,0.4l-0.2,0.7l-4.6-0.2c-0.2,0-0.4,0.2-0.4,0.4v1.1c0,0.2,0.2,0.4,0.4,0.4h2.3c-0.3,0.3-0.6,0.5-0.8,0.8h-1.5
		c-0.2,0-0.4,0.2-0.4,0.4v1.2h0.9c-0.2,0.5-0.4,1.1-0.5,1.7c0,0-1.8-2.1-4.7-3V28.3c6.2,3.3,12.2,6.5,18.1,9.7
		C42,39.9,36.8,55.4,36.8,55.4z"/>
	<path d="M90.1,28.1c1.1,2.5,5.6,5.8,10.7,4.9c4.8-0.9,8.4-4.8,8.8-9.9c0.3-4.9-2.9-8.9-5.7-9.9c1.4,2.2,2,4.6,1.7,7.1
		c-0.3,2.6-1.4,4.8-3.4,6.4C98.5,29.8,94.5,30.2,90.1,28.1z"/>
	<path d="M103.8,72.2c-0.6-0.7-1.1-1.3-1.5-2c-0.5-0.9-1.3-1.3-2.3-1.3c-0.6,0-1.1-0.1-1.7-0.2c-4.2-0.2-8.3,0.3-12.4,0.9
		c-0.2,0-0.3,0.1-0.6,0.3c0.9,0.8,1.7,1.6,2.6,2.4c0.2,0.2,0.6,0.2,0.8,0.2c0.8-0.1,1.6-0.3,2.5-0.4C95.4,71.5,99.5,71.7,103.8,72.2
		z"/>
	<path d="M116.1,45.2c0-1.1,0.1-2.2,0-3.4c-0.1-0.6-0.3-1.4-0.7-1.7c-0.8-0.6-1.8-0.9-2.7-1.2c-0.5-0.2-0.7,0.1-0.7,0.7
		c0,1.4,0,2.8,0,4.2c0,0.5,0.2,0.7,0.7,0.8C113.8,44.7,114.9,44.9,116.1,45.2z"/>
	<path d="M107.5,69.9C107.5,69.9,107.5,69.9,107.5,69.9c0-0.6,0-1.2,0-1.7c0-0.7-0.4-1.2-1.1-1.2c-0.7,0-1.2,0.4-1.2,1.1
		c-0.1,1.2,0,2.4,0,3.7c0,0.2,0.2,0.5,0.3,0.5c0.6,0,1.3,0.1,1.9-0.1c0.2-0.1,0.1-0.9,0.2-1.3C107.5,70.5,107.5,70.2,107.5,69.9z"/>
	<path d="M105.1,63.2c0.7-0.1,1.3-0.1,1.9-0.2c0.2,0,0.4-0.3,0.4-0.5c0-1.2,0.1-2.3,0-3.5c0-0.6-0.4-1-1.1-1c-0.7,0-1.2,0.4-1.2,1
		C105.1,60.3,105.1,61.7,105.1,63.2z"/>
	<path d="M113.4,71.1c0-1.4,0-2.8,0-4.2c0-0.6-0.5-1-1.1-1c-0.6,0-1.1,0.3-1.1,0.9c-0.1,1.4,0,2.9,0,4.3
		C111.8,71.1,112.5,71.1,113.4,71.1z"/>
	<path d="M99.4,64.3c0.7-0.1,1.3-0.1,1.8-0.2c0.2,0,0.5-0.4,0.5-0.6c0-1.1,0-2.2,0-3.3c0-0.7-0.6-1.2-1.2-1.2
		c-0.7,0.1-1.1,0.5-1.1,1.2C99.4,61.6,99.4,62.9,99.4,64.3z"/>
	<path d="M111.1,61.9c0.6,0,1.1,0,1.6,0c0.5,0,0.7-0.2,0.7-0.7c0-1.1,0-2.2,0-3.3c0-0.7-0.4-1.1-1.1-1.1c-0.7,0-1.1,0.4-1.2,1
		C111,59.2,111.1,60.6,111.1,61.9z"/>
	<path class="st1" d="M90.1,28.1c4.4,2.1,8.4,1.7,12.1-1.4c1.9-1.7,3.1-3.9,3.4-6.4c0.3-2.5-0.2-4.8-1.7-7.1c2.8,1,6,5,5.7,9.9
		c-0.4,5.1-4,9-8.8,9.9C95.7,33.9,91.2,30.6,90.1,28.1z"/>
	<polygon class="st2" points="3.5,90.9 74.7,77.5 78.6,81 3.5,92.7 	"/>
	<path class="st2" d="M103.8,72.2c-4.3-0.5-8.4-0.7-12.6-0.2c-0.8,0.1-1.6,0.3-2.5,0.4c-0.3,0-0.6,0-0.8-0.2
		c-0.9-0.7-1.7-1.5-2.6-2.4c0.2-0.1,0.4-0.2,0.6-0.3c4.1-0.5,8.3-1.1,12.4-0.9c0.6,0,1.1,0.1,1.7,0.2c1,0.1,1.8,0.4,2.3,1.3
		C102.7,70.8,103.2,71.4,103.8,72.2z"/>
	<path class="st2" d="M107.5,69.9c0,0.3,0,0.6,0,0.8c0,0.5,0,1.3-0.2,1.3c-0.6,0.2-1.2,0.1-1.9,0.1c-0.1,0-0.3-0.3-0.3-0.5
		c0-1.2-0.1-2.4,0-3.7c0-0.7,0.5-1.1,1.2-1.1c0.7,0,1.1,0.5,1.1,1.2C107.5,68.8,107.5,69.4,107.5,69.9
		C107.5,69.9,107.5,69.9,107.5,69.9z"/>
	<path class="st2" d="M105.1,63.2c0-1.5-0.1-2.8,0-4.2c0-0.6,0.5-1,1.2-1c0.7,0,1.1,0.5,1.1,1c0.1,1.2,0,2.3,0,3.5
		c0,0.2-0.3,0.4-0.4,0.5C106.4,63.1,105.8,63.1,105.1,63.2z"/>
	<path class="st2" d="M113.4,71.1c-0.8,0-1.5,0-2.3,0c0-1.5,0-2.9,0-4.3c0-0.6,0.5-0.9,1.1-0.9c0.6,0,1.1,0.4,1.1,1
		C113.4,68.2,113.4,69.6,113.4,71.1z"/>
	<path class="st2" d="M99.4,64.3c0-1.5,0-2.8,0-4.1c0-0.7,0.5-1.1,1.1-1.2c0.6-0.1,1.1,0.5,1.2,1.2c0,1.1,0,2.2,0,3.3
		c0,0.2-0.3,0.5-0.5,0.6C100.7,64.2,100.1,64.3,99.4,64.3z"/>
	<path class="st2" d="M111.1,61.9c0-1.4,0-2.7,0-4.1c0-0.7,0.5-1.1,1.2-1c0.7,0,1.1,0.4,1.1,1.1c0,1.1,0,2.2,0,3.3
		c0,0.5-0.2,0.7-0.7,0.7C112.2,61.9,111.7,61.9,111.1,61.9z"/>
	<path class="st2" d="M66.2,28.6c0,1.3,0,2.6,0,3.9c0,1.2,0.1,1.3,1.5,1.6c0-1.4,0-2.8,0-4.2C67.6,28.8,67.3,28.6,66.2,28.6z"/>
	<path class="st3" d="M64,40.7c1.3,0.1,1.5,0.3,1.5,1.3c0,1.1,0,2.2,0,3.3c-1.3,0-1.5-0.2-1.5-1.5C64,42.8,64,41.8,64,40.7z"/>
	<path class="st3" d="M66.2,41.5c1.4,0.3,1.5,0.3,1.5,1.6c0,1,0,2,0,3c-1.4-0.1-1.5-0.2-1.5-1.4C66.2,43.6,66.2,42.6,66.2,41.5z"/>
	<path class="st3" d="M68.3,42.4c1.3,0.2,1.4,0.3,1.4,1.3c0,1,0,2,0,3c-1.4-0.2-1.4-0.2-1.4-1.4C68.3,44.4,68.3,43.4,68.3,42.4z"/>
	<path class="st2" d="M80.3,53.8c0,1.1,0,3,0,4.3c1.4,2.2,2,4.5,2.2,5.4c0.5-0.1,0.9-0.2,1.4-0.3c0.2-0.1,0.6-0.5,0.6-0.7
		c0.1-1.1,0-2.3,0-3.4c0-0.6,0.3-0.9,0.9-0.7c0.7,0.1,1.3,0.3,2,0.4c0.5,0.1,0.8,0.4,0.8,0.9c0,0.8,0,1.7,0,2.5
		c0,0.5,0.1,0.8,0.7,0.8c0.8,0,1.7,0,2.5,0c0.2,0,0.5-0.1,0.6-0.3c0.7-1.3,1.4-2.6,2.2-4C89.5,57,85,55.4,80.3,53.8z"/>
	<polygon class="st2" points="59.3,60.1 59.3,60.1 59.3,60.1 	"/>
	<path class="st2" d="M60.7,58.5c2-2,5.9-5.1,11.5-5c3.3,0.1,5.5,1.5,7.1,3.3c0,0,0,0,0,0c0-8.1,0-17.3,0-25.5c0-0.6-0.1-1-0.7-1.4
		c-5.1-3.1-10.3-6.2-15.4-9.3c-0.8-0.5-1.5-0.9-2.5-1.5c0,1.4,0,2.7,0,3.9C60.7,33,60.7,54.9,60.7,58.5z"/>
	<path class="st0" d="M65.9,28c0.8-0.1,1.3,0.1,1.8,0.6c0,1.7,0,3.9,0,5.7l-1.8-0.8C65.9,32,65.9,29.6,65.9,28z"/>
	<path class="st0" d="M68.6,29.5c1.5,1.8,1.6,3.9,1.7,6l-1.7-0.8C68.6,33.2,68.6,31,68.6,29.5z"/>
	<path class="st0" d="M65,28.5c0,1.6,0,4.8,0,4.8l-1.7-0.8C63.4,30.2,64.7,28.7,65,28.5z"/>
	<path class="st0" d="M74.2,32.6c0.7-0.1,1.1,0.1,1.5,0.5c0,1.4,0,3.3,0,4.8l-1.5-0.6C74.2,35.9,74.2,33.9,74.2,32.6z"/>
	<path class="st0" d="M76.5,33.8c1.2,1.5,1.3,3.3,1.4,5l-1.4-0.7C76.4,36.9,76.5,35.1,76.5,33.8z"/>
	<path class="st0" d="M73.4,33c0,1.3,0,4,0,4L72,36.3C72.1,34.4,73.2,33.1,73.4,33z"/>
	<path class="st2" d="M117.5,51.6l-0.5,0.1c0-2.1,0-10.6,0-11.6c0-1.2-2.6-1.9-4.8-1.9c-1.9,0-4.8,0.9-4.8,2.3c0,1.3,0,11.2,0,13
		l-12.7,2.4l-14.5-5.3v1.2l14.3,5l22.9-4.3l9,3.5l0-0.9L117.5,51.6z M111.6,46.5l0,6.2l-3.3,0.6c0-1.3,0-10.8,0-12.4
		c0-1.2,2.1-1.8,3.6-1.9c0,1.4,0,3.3,0,4.6c0,0.5,0.2,0.7,0.7,0.8c1.1,0.2,2.2,0.4,3.4,0.7v6.8l-3.9,0.7v-6L111.6,46.5z"/>
	<g>
		<path class="st2" d="M53.8,38.4l-1,0.3c-0.2,0-0.3,0.2-0.3,0.4v1.2c0,0.2,0.2,0.4,0.5,0.4l1-0.3c0.2,0,0.3-0.2,0.3-0.4v-1.2
			C54.3,38.5,54,38.4,53.8,38.4z"/>
		<path class="st2" d="M50.7,41.2l0.9-0.2c0.2,0,0.3-0.2,0.3-0.4v-1.2c0-0.2-0.2-0.4-0.5-0.4l-0.9,0.2c-0.2,0-0.3,0.2-0.3,0.4v1.2
			C50.2,41.1,50.4,41.3,50.7,41.2z"/>
		<path class="st2" d="M55,38.4v1.2c0,0.3,0.2,0.4,0.5,0.4l1-0.3c0.2,0,0.3-0.2,0.3-0.4v-1.2c0-0.3-0.2-0.4-0.5-0.4l-1,0.3
			C55.1,38,55,38.2,55,38.4z"/>
		<path class="st2" d="M49,39.8L48,40.1c-0.1,0-0.2,0.2-0.2,0.3v1.2c0,0.2,0.2,0.4,0.4,0.3l1.1-0.3c0.2,0,0.3-0.2,0.3-0.3v-1.2
			C49.4,39.9,49.2,39.7,49,39.8z"/>
	</g>
	<g>
		<path class="st2" d="M53.8,41.1l-1,0.3c-0.2,0-0.3,0.2-0.3,0.3v4c0,0.2,0.2,0.4,0.4,0.3l1-0.2c0.2,0,0.3-0.2,0.3-0.3v-4
			C54.3,41.2,54.1,41,53.8,41.1z"/>
		<path class="st2" d="M50.6,46.5l0.9-0.2c0.2,0,0.3-0.2,0.3-0.3v-3.9c0-0.2-0.2-0.4-0.4-0.3L50.4,42c-0.2,0-0.3,0.2-0.3,0.3v3.8
			C50.2,46.4,50.4,46.6,50.6,46.5z"/>
		<path class="st2" d="M49,42.4l-1,0.3c-0.2,0-0.3,0.2-0.3,0.3l0,3.6c0,0.2,0.2,0.4,0.4,0.3l1-0.2c0.2,0,0.3-0.2,0.3-0.3v-3.7
			C49.4,42.5,49.2,42.4,49,42.4z"/>
		<path class="st2" d="M55,41.1v4.1c0,0.2,0.2,0.4,0.4,0.3l1-0.2c0.2,0,0.3-0.2,0.3-0.3v-4.2c0-0.2-0.2-0.4-0.4-0.3l-1,0.3
			C55.1,40.8,55,40.9,55,41.1z"/>
	</g>
	<polygon class="st2" points="3.5,26.9 12.6,34.4 23.7,25.7 33.7,31.2 60.7,17.1 79.9,28.9 80.7,28.2 60.7,15.9 33.7,30.1 
		23.5,24.6 12.6,33.2 3.5,25.7 	"/>
	<g>
		<polygon class="st0" points="68.6,41.9 68.6,46.8 70.2,47.2 70.2,42.4 		"/>
		<polygon class="st0" points="65.9,38.5 65.9,40.4 67.7,41 67.7,39.2 		"/>
		<polygon class="st0" points="68.6,41.3 70.2,41.8 70.2,40.1 68.6,39.5 		"/>
		<polygon class="st0" points="65.9,46.1 67.7,46.6 67.7,41.7 65.9,41.1 		"/>
		<polygon class="st0" points="65,40.1 65,38.2 63.3,37.6 63.3,39.5 		"/>
		<polygon class="st0" points="65,40.8 63.3,40.3 63.3,45.3 65,45.8 		"/>
	</g>
	<g>
		<polygon class="st0" points="74.2,41.4 74.2,43.1 75.7,43.6 75.7,42 		"/>
		<polygon class="st0" points="74.2,48.4 75.7,48.8 75.7,44.2 74.2,43.7 		"/>
		<polygon class="st0" points="76.5,43.9 77.9,44.3 77.9,42.7 76.5,42.2 		"/>
		<polygon class="st0" points="73.4,42.8 73.4,41.1 71.9,40.6 71.9,42.3 		"/>
		<polygon class="st0" points="76.5,44.4 76.5,49 77.9,49.4 77.9,44.8 		"/>
		<polygon class="st0" points="73.4,43.5 71.9,43 71.9,47.7 73.4,48.1 		"/>
	</g>
	<path d="M90.1,28.1c1.1,2.5,5.6,5.8,10.7,4.9c4.8-0.9,8.4-4.8,8.8-9.9c0.3-4.9-2.9-8.9-5.7-9.9c1.4,2.2,2,4.6,1.7,7.1
		c-0.3,2.6-1.4,4.8-3.4,6.4C98.5,29.8,94.5,30.2,90.1,28.1z"/>
	<path d="M103.8,72.2c-0.6-0.7-1.1-1.3-1.5-2c-0.5-0.9-1.3-1.3-2.3-1.3c-0.6,0-1.1-0.1-1.7-0.2c-4.2-0.2-8.3,0.3-12.4,0.9
		c-0.2,0-0.3,0.1-0.6,0.3c0.9,0.8,1.7,1.6,2.6,2.4c0.2,0.2,0.6,0.2,0.8,0.2c0.8-0.1,1.6-0.3,2.5-0.4C95.4,71.5,99.5,71.7,103.8,72.2
		z"/>
	<path d="M116.1,45.2c0-1.1,0.1-2.2,0-3.4c-0.1-0.6-0.3-1.4-0.7-1.7c-0.8-0.6-1.8-0.9-2.7-1.2c-0.5-0.2-0.7,0.1-0.7,0.7
		c0,1.4,0,2.8,0,4.2c0,0.5,0.2,0.7,0.7,0.8C113.8,44.7,114.9,44.9,116.1,45.2z"/>
	<path class="st2" d="M6.8,67.9c0,0.3,0.2,0.6,0.4,0.8c0.7,0.5,1.4,0.9,2.2,1.4c0-1.5,0-3,0-4.4c0-0.8,0-1.5,0-2.3
		c0-0.8-0.8-1.5-1.5-1.5c-0.7,0-1.1,0.6-1.1,1.5C6.7,64.9,6.7,66.4,6.8,67.9L6.8,67.9C6.8,67.8,6.8,67.9,6.8,67.9z"/>
	<path d="M107.5,69.9C107.5,69.9,107.5,69.9,107.5,69.9c0-0.6,0-1.2,0-1.7c0-0.7-0.4-1.2-1.1-1.2c-0.7,0-1.2,0.4-1.2,1.1
		c-0.1,1.2,0,2.4,0,3.7c0,0.2,0.2,0.5,0.3,0.5c0.6,0,1.3,0.1,1.9-0.1c0.2-0.1,0.1-0.9,0.2-1.3C107.5,70.5,107.5,70.2,107.5,69.9z"/>
	<path d="M105.1,63.2c0.7-0.1,1.3-0.1,1.9-0.2c0.2,0,0.4-0.3,0.4-0.5c0-1.2,0.1-2.3,0-3.5c0-0.6-0.4-1-1.1-1c-0.7,0-1.2,0.4-1.2,1
		C105.1,60.3,105.1,61.7,105.1,63.2z"/>
	<path d="M113.4,71.1c0-1.4,0-2.8,0-4.2c0-0.6-0.5-1-1.1-1c-0.6,0-1.1,0.3-1.1,0.9c-0.1,1.4,0,2.9,0,4.3
		C111.8,71.1,112.5,71.1,113.4,71.1z"/>
	<path d="M99.4,64.3c0.7-0.1,1.3-0.1,1.8-0.2c0.2,0,0.5-0.4,0.5-0.6c0-1.1,0-2.2,0-3.3c0-0.7-0.6-1.2-1.2-1.2
		c-0.7,0.1-1.1,0.5-1.1,1.2C99.4,61.6,99.4,62.9,99.4,64.3z"/>
	<path d="M111.1,61.9c0.6,0,1.1,0,1.6,0c0.5,0,0.7-0.2,0.7-0.7c0-1.1,0-2.2,0-3.3c0-0.7-0.4-1.1-1.1-1.1c-0.7,0-1.1,0.4-1.2,1
		C111,59.2,111.1,60.6,111.1,61.9z"/>
	<polygon class="st2" points="3.5,90.9 74.7,77.5 78.6,81 3.5,92.7 	"/>
	<path class="st2" d="M103.8,72.2c-4.3-0.5-8.4-0.7-12.6-0.2c-0.8,0.1-1.6,0.3-2.5,0.4c-0.3,0-0.6,0-0.8-0.2
		c-0.9-0.7-1.7-1.5-2.6-2.4c0.2-0.1,0.4-0.2,0.6-0.3c4.1-0.5,8.3-1.1,12.4-0.9c0.6,0,1.1,0.1,1.7,0.2c1,0.1,1.8,0.4,2.3,1.3
		C102.7,70.8,103.2,71.4,103.8,72.2z"/>
	<path class="st2" d="M14.1,61.9c-0.8-0.5-1.5-0.9-2.1-1.4c-0.2-0.1-0.3-0.5-0.3-0.7c0-1.2,0-2.3,0-3.5c0-0.8,0.5-1.6,1-1.6
		c0.9,0,1.4,0.6,1.4,1.5C14.1,58,14.1,59.9,14.1,61.9z"/>
	<path class="st2" d="M14.1,71.6c-0.8-0.5-1.5-0.9-2.1-1.4c-0.2-0.1-0.3-0.5-0.3-0.7c0-1.2,0-2.3,0-3.5c0-0.8,0.5-1.6,1-1.6
		c0.9,0,1.4,0.6,1.4,1.5C14.1,67.7,14.1,69.5,14.1,71.6z"/>
	<path class="st2" d="M14.1,51.3c-0.8-0.5-1.5-0.9-2.1-1.4c-0.2-0.1-0.3-0.5-0.3-0.7c0-1.2,0-2.3,0-3.5c0-0.8,0.5-1.6,1-1.6
		c0.9,0,1.4,0.6,1.4,1.5C14.1,47.4,14.1,49.3,14.1,51.3z"/>
	<path class="st2" d="M9.2,59.2c-0.8-0.5-1.5-0.9-2.1-1.4c-0.2-0.1-0.3-0.5-0.3-0.7c0-1.2,0-2.3,0-3.5c0-0.8,0.5-1.6,1-1.6
		c0.9,0,1.4,0.6,1.4,1.5C9.2,55.4,9.2,57.2,9.2,59.2z"/>
	<path class="st2" d="M107.5,69.9c0,0.3,0,0.6,0,0.8c0,0.5,0,1.3-0.2,1.3c-0.6,0.2-1.2,0.1-1.9,0.1c-0.1,0-0.3-0.3-0.3-0.5
		c0-1.2-0.1-2.4,0-3.7c0-0.7,0.5-1.1,1.2-1.1c0.7,0,1.1,0.5,1.1,1.2C107.5,68.8,107.5,69.4,107.5,69.9
		C107.5,69.9,107.5,69.9,107.5,69.9z"/>
	<path class="st2" d="M105.1,63.2c0-1.5-0.1-2.8,0-4.2c0-0.6,0.5-1,1.2-1c0.7,0,1.1,0.5,1.1,1c0.1,1.2,0,2.3,0,3.5
		c0,0.2-0.3,0.4-0.4,0.5C106.4,63.1,105.8,63.1,105.1,63.2z"/>
	<path class="st2" d="M113.4,71.1c-0.8,0-1.5,0-2.3,0c0-1.5,0-2.9,0-4.3c0-0.6,0.5-0.9,1.1-0.9c0.6,0,1.1,0.4,1.1,1
		C113.4,68.2,113.4,69.6,113.4,71.1z"/>
	<path class="st2" d="M99.4,64.3c0-1.5,0-2.8,0-4.1c0-0.7,0.5-1.1,1.1-1.2c0.6-0.1,1.1,0.5,1.2,1.2c0,1.1,0,2.2,0,3.3
		c0,0.2-0.3,0.5-0.5,0.6C100.7,64.2,100.1,64.3,99.4,64.3z"/>
	<path class="st2" d="M111.1,61.9c0-1.4,0-2.7,0-4.1c0-0.7,0.5-1.1,1.2-1c0.7,0,1.1,0.4,1.1,1.1c0,1.1,0,2.2,0,3.3
		c0,0.5-0.2,0.7-0.7,0.7C112.2,61.9,111.7,61.9,111.1,61.9z"/>
	<path class="st2" d="M66.2,28.6c0,1.3,0,2.6,0,3.9c0,1.2,0.1,1.3,1.5,1.6c0-1.4,0-2.8,0-4.2C67.6,28.8,67.3,28.6,66.2,28.6z"/>
	<path class="st3" d="M64,40.7c1.3,0.1,1.5,0.3,1.5,1.3c0,1.1,0,2.2,0,3.3c-1.3,0-1.5-0.2-1.5-1.5C64,42.8,64,41.8,64,40.7z"/>
	<path class="st3" d="M66.2,41.5c1.4,0.3,1.5,0.3,1.5,1.6c0,1,0,2,0,3c-1.4-0.1-1.5-0.2-1.5-1.4C66.2,43.6,66.2,42.6,66.2,41.5z"/>
	<path class="st3" d="M68.3,42.4c1.3,0.2,1.4,0.3,1.4,1.3c0,1,0,2,0,3c-1.4-0.2-1.4-0.2-1.4-1.4C68.3,44.4,68.3,43.4,68.3,42.4z"/>
	<path class="st2" d="M80.3,53.8c0,1.1,0,3,0,4.3c1.4,2.2,2,4.5,2.2,5.4c0.5-0.1,0.9-0.2,1.4-0.3c0.2-0.1,0.6-0.5,0.6-0.7
		c0.1-1.1,0-2.3,0-3.4c0-0.6,0.3-0.9,0.9-0.7c0.7,0.1,1.3,0.3,2,0.4c0.5,0.1,0.8,0.4,0.8,0.9c0,0.8,0,1.7,0,2.5
		c0,0.5,0.1,0.8,0.7,0.8c0.8,0,1.7,0,2.5,0c0.2,0,0.5-0.1,0.6-0.3c0.7-1.3,1.4-2.6,2.2-4C89.5,57,85,55.4,80.3,53.8z"/>
	<polygon class="st2" points="59.3,60.1 59.3,60.1 59.3,60.1 	"/>
	<path class="st2" d="M117.5,51.6l-0.5,0.1c0-2.1,0-10.6,0-11.6c0-1.2-2.6-1.9-4.8-1.9c-1.9,0-4.8,0.9-4.8,2.3c0,1.3,0,11.2,0,13
		l-12.7,2.4l-14.5-5.3v1.2l14.3,5l22.9-4.3l9,3.5l0-0.9L117.5,51.6z M111.6,46.5l0,6.2l-3.3,0.6c0-1.3,0-10.8,0-12.4
		c0-1.2,2.1-1.8,3.6-1.9c0,1.4,0,3.3,0,4.6c0,0.5,0.2,0.7,0.7,0.8c1.1,0.2,2.2,0.4,3.4,0.7v6.8l-3.6,0.6v-5.9L111.6,46.5z"/>
	<polygon class="st2" points="3.5,26.9 12.6,34.4 23.7,25.7 33.7,31.2 60.7,17.1 79.9,28.9 80.7,28.2 60.7,15.9 33.7,30.1 
		23.5,24.6 12.6,33.2 3.5,25.7 	"/>
	<path class="st2" d="M60.7,58.5c2-2,5.9-5.1,11.5-5c3.3,0.1,5.5,1.5,7.1,3.3c0,0,0,0,0,0c0-8.1,0-17.3,0-25.5c0-0.6-0.1-1-0.7-1.4
		c-5.1-3.1-10.3-6.2-15.4-9.3c-0.8-0.5-1.5-0.9-2.5-1.5c0,1.4,0,2.7,0,3.9C60.7,33,60.7,54.9,60.7,58.5z"/>
	<g>
		<path class="st0" d="M34,42.3v-1.5c0-0.1-0.1-0.2-0.2-0.3l-1.5-0.6c-0.2-0.1-0.4,0.1-0.4,0.3v1.1c0,0.1,0.1,0.2,0.2,0.3L34,42.3z"
			/>
		<path class="st0" d="M32,39.1l1.5,0.6c0.2,0.1,0.4-0.1,0.4-0.3v-1.3c0-0.1-0.1-0.2-0.2-0.3l-1.5-0.7c-0.2-0.1-0.4,0-0.4,0.3v1.4
			C31.8,38.9,31.9,39,32,39.1z"/>
		<path class="st0" d="M29,40.5l1.7,0.6c0.2,0.1,0.4-0.1,0.4-0.3v-1.2c0-0.1-0.1-0.2-0.2-0.3l-1.7-0.6c-0.2-0.1-0.4,0.1-0.4,0.3v1.2
			C28.8,40.4,28.9,40.5,29,40.5z"/>
		<path class="st0" d="M34.7,38.3v1.6c0,0.1,0.1,0.2,0.2,0.3l1.9,0.7v-1.5c0-0.1-0.1-0.2-0.2-0.3L34.7,38.3z"/>
		<path class="st0" d="M37.5,41c0,0.1,0.1,0.2,0.2,0.3l1.8,0.7v-1.2c0-0.1-0.1-0.2-0.2-0.3l-1.8-0.9V41z"/>
		<path class="st0" d="M33.8,42.9l-1.5-0.5c-0.2-0.1-0.4,0.1-0.4,0.3v1.1c0,0.1,0.1,0.3,0.2,0.3l1.5,0.5c0.2,0.1,0.4-0.1,0.4-0.3
			v-1.1C34,43.1,33.9,42.9,33.8,42.9z"/>
		<path class="st0" d="M36.8,43.3v-1.4c0-0.1-0.1-0.2-0.2-0.3l-1.8-0.7v1.5c0,0.1,0.1,0.2,0.2,0.3L36.8,43.3z"/>
		<path class="st0" d="M30.9,41.9l-1.7-0.6c-0.2-0.1-0.4,0.1-0.4,0.3v1.2c0,0.1,0.1,0.3,0.2,0.3l1.7,0.5c0.2,0.1,0.4-0.1,0.4-0.3
			v-1.2C31.1,42.1,31,42,30.9,41.9z"/>
		<path class="st0" d="M31.1,38.2v-1.5c0-0.1-0.1-0.2-0.2-0.3l-1.7-0.8c-0.2-0.1-0.4,0-0.4,0.3v1.7c0,0.1,0.1,0.2,0.2,0.3l1.7,0.7
			C30.9,38.6,31.1,38.5,31.1,38.2z"/>
		<path class="st0" d="M30.9,44.5L29.2,44c-0.2-0.1-0.4,0.1-0.4,0.3v1.1c0,0.1,0.1,0.3,0.2,0.3l1.7,0.5c0.2,0.1,0.4-0.1,0.4-0.3
			v-1.1C31.1,44.6,31,44.5,30.9,44.5z"/>
		<path class="st0" d="M37.5,46.9v1.2c0,0.1,0.1,0.3,0.2,0.3l1.3,0.4c0.2,0.1,0.4-0.1,0.4-0.3v-1.2c0-0.1-0.1-0.3-0.2-0.3l-1.3-0.4
			C37.7,46.5,37.5,46.7,37.5,46.9z"/>
		<path class="st0" d="M37.5,43.3c0,0.1,0.1,0.2,0.2,0.3l1.8,0.6v-1.4c0-0.1-0.1-0.2-0.2-0.3l-1.8-0.7V43.3z"/>
		<path class="st0" d="M36.5,46.2l-1.4-0.4c-0.2-0.1-0.4,0.1-0.4,0.3v1.2c0,0.1,0.1,0.3,0.2,0.3l1.4,0.4c0.2,0.1,0.4-0.1,0.4-0.3
			v-1.2C36.8,46.3,36.7,46.2,36.5,46.2z"/>
		<path class="st0" d="M34,46.8v-1.2c0-0.1-0.1-0.3-0.2-0.3l-1.5-0.5c-0.2-0.1-0.4,0.1-0.4,0.3v1.2c0,0.1,0.1,0.3,0.2,0.3l1.5,0.5
			C33.8,47.2,34,47,34,46.8z"/>
		<path class="st0" d="M34.7,43.2v1.5c0,0.1,0.1,0.3,0.2,0.3l1.8,0.6v-1.4c0-0.1-0.1-0.2-0.2-0.3L34.7,43.2z"/>
		<path class="st0" d="M39.5,45.1c0-0.1-0.1-0.2-0.2-0.3l-1.7-0.6v1.4c0,0.1,0.1,0.3,0.2,0.3l1.7,0.5V45.1z"/>
	</g>
	<path class="st1" d="M90.1,28.1c4.4,2.1,8.4,1.7,12.1-1.4c1.9-1.7,3.1-3.9,3.4-6.4c0.3-2.5-0.2-4.8-1.7-7.1c2.8,1,6,5,5.7,9.9
		c-0.4,5.1-4,9-8.8,9.9C95.7,33.9,91.2,30.6,90.1,28.1z"/>
	<path class="st0" d="M65.9,28c0.8-0.1,1.3,0.1,1.8,0.6c0,1.7,0,3.9,0,5.7l-1.8-0.8C65.9,32,65.9,29.6,65.9,28z"/>
	<path class="st0" d="M68.6,29.5c1.5,1.8,1.6,3.9,1.7,6l-1.4-0.7c-0.2-0.1-0.3-0.2-0.3-0.4C68.6,32.9,68.6,30.9,68.6,29.5z"/>
	<path class="st0" d="M65,28.5v4.3c0,0.2-0.2,0.4-0.5,0.3l-1.1-0.5c-0.1-0.1-0.2-0.2-0.2-0.3C63.5,30.1,64.7,28.6,65,28.5z"/>
	<path class="st0" d="M74.2,32.6c0.7-0.1,1.1,0.1,1.5,0.5c0,1.4,0,3.3,0,4.8l-1.5-0.6C74.2,35.9,74.2,33.9,74.2,32.6z"/>
	<path class="st0" d="M76.5,33.8c1.2,1.5,1.3,3.3,1.4,5l-1.2-0.6c-0.1-0.1-0.2-0.2-0.2-0.4C76.4,36.7,76.5,35,76.5,33.8z"/>
	<path class="st0" d="M73.4,33c0,1.3,0,4,0,4l-1.2-0.5C72.1,36.3,72,36.2,72,36C72.2,34.3,73.2,33.1,73.4,33z"/>
	<g>
		<path class="st0" d="M68.6,41.9v4.7c0,0.1,0.1,0.2,0.2,0.3l1.1,0.3c0.2,0,0.3-0.1,0.3-0.3v-4.3c0-0.1-0.1-0.2-0.2-0.2L68.6,41.9z"
			/>
		<path class="st0" d="M65.9,38.9v1.3c0,0.1,0.1,0.2,0.2,0.2l1.3,0.4c0.2,0.1,0.3-0.1,0.3-0.2v-1.2c0-0.1-0.1-0.2-0.2-0.2l-1.3-0.5
			C66.1,38.6,65.9,38.7,65.9,38.9z"/>
		<path class="st0" d="M68.6,41.1c0,0.1,0.1,0.2,0.2,0.2l1.4,0.5v-1.5c0-0.1-0.1-0.2-0.2-0.2l-1.4-0.5V41.1z"/>
		<path class="st0" d="M66.1,46.1l1.3,0.4c0.2,0,0.3-0.1,0.3-0.3v-4.3c0-0.1-0.1-0.2-0.2-0.2l-1.3-0.4c-0.2-0.1-0.3,0.1-0.3,0.2v4.4
			C65.9,46,66,46.1,66.1,46.1z"/>
		<path class="st0" d="M65,39.7v-1.3c0-0.1-0.1-0.2-0.2-0.2l-1.2-0.4c-0.2-0.1-0.3,0.1-0.3,0.2v1.3c0,0.1,0.1,0.2,0.2,0.2l1.2,0.4
			C64.8,40,65,39.9,65,39.7z"/>
		<path class="st0" d="M64.8,40.8l-1.2-0.4c-0.2-0.1-0.3,0.1-0.3,0.2v4.5c0,0.1,0.1,0.2,0.2,0.3l1.2,0.3c0.2,0,0.3-0.1,0.3-0.3V41
			C65,40.9,64.9,40.8,64.8,40.8z"/>
	</g>
	<g>
		<path class="st0" d="M74.2,41.4v1.4c0,0.2,0.1,0.3,0.3,0.4l1.2,0.4v-1.4c0-0.2-0.1-0.3-0.3-0.4L74.2,41.4z"/>
		<path class="st0" d="M74.2,48c0,0.2,0.1,0.4,0.3,0.4l1.2,0.3v-4.3c0-0.2-0.1-0.3-0.3-0.4l-1.2-0.4V48z"/>
		<path class="st0" d="M76.5,43.6c0,0.2,0.1,0.3,0.3,0.4l1.1,0.4V43c0-0.2-0.1-0.3-0.3-0.4l-1.1-0.4V43.6z"/>
		<path class="st0" d="M73.4,42.8v-1.4c0-0.2-0.1-0.3-0.3-0.4l-1.2-0.5V42c0,0.2,0.1,0.3,0.3,0.4L73.4,42.8z"/>
		<path class="st0" d="M76.5,44.4v4.2c0,0.2,0.1,0.4,0.3,0.4l1.1,0.3v-4.2c0-0.2-0.1-0.3-0.3-0.4L76.5,44.4z"/>
		<path class="st0" d="M73.4,43.8c0-0.2-0.1-0.3-0.3-0.4L71.9,43v4.4c0,0.2,0.1,0.4,0.3,0.4l1.2,0.3V43.8z"/>
	</g>
	<g>
		<path class="st2" d="M52.9,33l1.1-0.4c0.1,0,0.2-0.2,0.2-0.3v-5c0-0.1-0.1-0.3-0.2-0.3c-0.4-0.1-0.8-0.2-1.3-0.2
			c-0.2,0-0.3,0.2-0.3,0.3v5.6C52.5,33,52.7,33.1,52.9,33z"/>
		<path class="st2" d="M55.4,32.2l1.1-0.4c0.1,0,0.2-0.2,0.2-0.4c-0.3-1.9-0.9-3.2-1.7-3.9v4.3C55,32.1,55.2,32.3,55.4,32.2z"/>
		<path class="st2" d="M49.4,28.8c-1.5,1.9-1.8,4.5-1.8,5.6c0,0.2,0.2,0.4,0.4,0.3l1.2-0.4c0.1,0,0.2-0.2,0.2-0.3V28.8z"/>
		<path class="st2" d="M50.2,34l1.4-0.5c0.1,0,0.2-0.2,0.2-0.3v-6.1c-0.5,0.2-1,0.4-1.5,0.8c0,0.1-0.1,0.2-0.1,0.3V34z"/>
	</g>
</g>
</svg>
