<?xml version="1.0" encoding="utf-8"?>
<!-- Generator: Adobe Illustrator 20.1.0, SVG Export Plug-In . SVG Version: 6.00 Build 0)  -->
<svg version="1.1" id="Layer_1" xmlns="http://www.w3.org/2000/svg" xmlns:xlink="http://www.w3.org/1999/xlink" x="0px" y="0px"
	 viewBox="0 0 130 150" style="enable-background:new 0 0 130 150;" xml:space="preserve">
<style type="text/css">
	.st0{fill:#00202E;}
	.st1{fill:#C7BA7A;}
	.st2{fill:#FFFFFF;}
	.st3{fill:#231F20;}
</style>
<g>
	<g>
		<path class="st0" d="M9.3,27.6h3.5L20,68h-3.3l-1.3-8.2H7.3L6.1,68H2.8L9.3,27.6z M14.9,57l-3.7-22.9h0L7.7,57H14.9z"/>
		<path class="st0" d="M25,27.6h6.9c2.8,0,4.6,0.6,5.6,1.7c0.7,0.9,1.2,1.9,1.3,3.2c0.2,1.3,0.3,3.1,0.3,5.5c0,2.4-0.3,4.4-0.8,5.9
			c-0.6,1.5-1.5,2.5-2.9,2.8c0.5,0.1,1,0.3,1.4,0.5s0.7,0.6,1,1.2c0.9,1.8,1.4,6.1,1.4,13c0,2.9,0,4.5,0.1,4.9
			c0.1,0.4,0.2,1,0.4,1.6h-3.4c-0.2-0.5-0.4-1.3-0.4-2.6s-0.1-3.3-0.1-6.1v-4.5c0-2.8-0.2-4.6-0.5-5.4c-0.3-0.8-1.4-1.1-3.1-1.1
			l-3.6-0.2V68H25V27.6z M35.6,37.4c0-2-0.1-3.5-0.3-4.5c-0.2-0.9-0.5-1.6-1-1.9c-0.5-0.3-1.2-0.5-2.1-0.5h-3.8v15.3h3.6
			c1.2,0,2-0.2,2.4-0.6c0.4-0.4,0.7-1.1,1-2c0.2-0.9,0.3-2.8,0.3-5.5V37.4z"/>
		<path class="st0" d="M42.9,27.6h11.4v2.7h-3.8V68h-3.4V30.3h-4.2V27.6z"/>
		<path class="st0" d="M57.5,33.8c0.2-2.2,0.9-3.9,1.9-5c1.1-1.1,2.7-1.7,5-1.7c2.3,0,3.8,0.6,4.7,1.7c0.5,0.6,0.9,1.2,1.1,1.8
			c0.6,1.2,0.9,4.2,0.9,8.9v2.3h-3.5v-2.5c0-3.5-0.1-5.7-0.3-6.4c-0.2-0.7-0.5-1.3-0.7-1.7c-0.4-0.7-1.2-1.1-2.4-1.1
			c-2.3,0-3.5,2.2-3.5,6.5c0,1.5,0.1,2.5,0.4,3.1c0.3,0.5,0.5,1,0.7,1.3s1.1,1.4,2.9,3.2l2.2,2.2c3.3,3.4,4.9,7.2,4.9,11.5
			c0,4.3-0.6,7.2-1.9,8.6c-1.2,1.4-3.1,2.1-5.5,2.1c-3.8,0-5.9-2.3-6.5-6.8c-0.2-1.5-0.3-3.4-0.3-5.6v-4.2h3.5V56
			c0,3.6,0.2,6.2,0.7,7.5c0.5,1.4,1.5,2.1,2.9,2.1c1.5,0,2.4-0.4,2.8-1.3c0.4-0.9,0.6-2,0.7-3.2c0-1.3,0.1-2.6,0.1-4.1
			c0-3-1.2-5.7-3.6-8l-2.3-2.2c-2-2-3.4-3.7-4.1-5.1c-0.7-1.4-1-2.8-1-4.2C57.3,36,57.4,34.8,57.5,33.8z"/>
	</g>
	<g>
		<path class="st0" d="M2.4,106h6.2c3.6,0,5.9,1.5,6.9,4.5c0.6,1.7,0.9,4.1,0.9,7.1l0,17.3c0,4.2-0.6,7.2-1.8,8.9
			c-1.2,1.8-3.3,2.6-6.2,2.6H2.4V106z M13,117.2c0-2.9-0.3-5.1-1-6.4c-0.7-1.3-1.7-2-3.2-2h-3v34.6h2.8c1.9,0,3.1-0.9,3.7-2.6
			c0.5-1.4,0.7-3.5,0.7-6.4L13,117.2z"/>
		<path class="st0" d="M23.6,106H27v40.4h-3.4V106z"/>
		<path class="st0" d="M33.3,112.2c0.2-2.2,0.9-3.9,1.9-5c1.1-1.1,2.7-1.7,5-1.7c2.3,0,3.8,0.6,4.7,1.7c0.5,0.6,0.9,1.2,1.1,1.8
			c0.6,1.2,0.9,4.2,0.9,8.9v2.3h-3.5v-2.5c0-3.5-0.1-5.7-0.3-6.4c-0.2-0.7-0.5-1.3-0.7-1.7c-0.4-0.7-1.2-1.1-2.4-1.1
			c-2.3,0-3.5,2.2-3.5,6.5c0,1.5,0.1,2.5,0.4,3.1c0.3,0.5,0.5,1,0.7,1.3c0.1,0.3,1.1,1.4,2.9,3.2l2.2,2.2c3.3,3.4,4.9,7.2,4.9,11.5
			c0,4.3-0.6,7.2-1.9,8.6c-1.2,1.4-3.1,2.1-5.5,2.1c-3.8,0-5.9-2.3-6.5-6.8c-0.2-1.5-0.3-3.4-0.3-5.6v-4.2H37v4.1
			c0,3.6,0.2,6.2,0.7,7.5c0.5,1.4,1.5,2.1,2.9,2.1c1.5,0,2.4-0.4,2.8-1.3c0.4-0.9,0.6-2,0.7-3.2c0-1.3,0.1-2.6,0.1-4.1
			c0-3-1.2-5.7-3.6-8l-2.3-2.2c-2-2-3.4-3.7-4.1-5.1c-0.7-1.4-1-2.8-1-4.2C33.1,114.4,33.2,113.2,33.3,112.2z"/>
		<path class="st0" d="M50.2,106h11.4v2.7h-3.8v37.7h-3.4v-37.7h-4.2V106z"/>
		<path class="st0" d="M66.2,106h6.9c2.8,0,4.6,0.6,5.6,1.7c0.7,0.9,1.2,1.9,1.3,3.2c0.2,1.3,0.3,3.1,0.3,5.5c0,2.4-0.3,4.4-0.8,5.9
			c-0.6,1.5-1.5,2.5-2.9,2.8c0.5,0.1,1,0.3,1.4,0.5s0.7,0.6,1,1.2c0.9,1.8,1.4,6.1,1.4,13c0,2.9,0,4.5,0.1,4.9
			c0.1,0.4,0.2,1,0.4,1.6h-3.4c-0.2-0.5-0.4-1.3-0.4-2.6s-0.1-3.3-0.1-6.1v-4.5c0-2.8-0.2-4.6-0.5-5.4c-0.3-0.8-1.4-1.1-3.1-1.1
			l-3.6-0.2v19.9h-3.4V106z M76.8,115.8c0-2-0.1-3.5-0.3-4.5c-0.2-0.9-0.5-1.6-1-1.9c-0.5-0.3-1.2-0.5-2.1-0.5h-3.8v15.3h3.6
			c1.2,0,2-0.2,2.4-0.6c0.4-0.4,0.7-1.1,1-2c0.2-0.9,0.3-2.8,0.3-5.5V115.8z"/>
		<path class="st0" d="M87.4,106h3.4v40.4h-3.4V106z"/>
		<path class="st0" d="M97.9,117.7c0-4.9,0.6-8.2,1.8-9.8c1.2-1.6,3-2.4,5.3-2.4c2.3,0,3.9,0.6,4.9,1.7c0.7,0.8,1.2,1.6,1.4,2.4
			c0.5,1.9,0.8,4.7,0.8,8.4v3.5h-3.5v-3.9c0-3.4-0.2-5.7-0.6-6.8s-0.9-1.9-1.6-2.2c-0.4-0.2-0.8-0.3-1.3-0.3c-1.5,0-2.5,0.7-3,2.2
			c-0.6,1.5-0.8,3.8-0.8,7v16.2c0,3.9,0.2,6.6,0.7,8.1c0.5,1.5,1.5,2.2,2.9,2.2s2.4-0.7,2.9-2.2c0.5-1.5,0.7-4.2,0.7-8.1v-3.2h3.4
			v3.2c0,3.5-0.2,6.1-0.6,7.6c-0.4,1.6-0.8,2.7-1.4,3.3c-1.1,1.4-2.7,2.2-5,2.2s-3.9-0.7-5.1-2.1c-1.4-1.7-2.1-5.4-2.1-10.9V117.7z"
			/>
		<path class="st0" d="M115.6,106H127v2.7h-3.8v37.7h-3.4v-37.7h-4.2V106z"/>
	</g>
	<g>
		<path class="st0" d="M7.4,6.5c-0.1-0.4-0.1-1-1-1C6,5.4,5.5,5.8,5.5,6.3c0,0.6,0.3,0.8,2.2,1.6c2,0.9,2.5,1.8,2.5,3.1
			c0,1.6-0.9,3.3-3.7,3.3c-3.1,0-3.9-2-3.9-3.4v-0.3h2.7c0,1.2,0.8,1.5,1.1,1.5c0.7,0,1-0.5,1-1c0-0.7-0.4-0.9-2.1-1.6
			C4.7,9.1,2.8,8.3,2.8,6.3c0-2,2-3.2,3.8-3.2c1.1,0,2.2,0.4,2.9,1.2c0.6,0.8,0.7,1.5,0.7,2.1H7.4z"/>
		<path class="st0" d="M13.6,5.8h-2.1V3.3h7v2.4h-2.1v8.3h-2.7V5.8z"/>
		<path class="st0" d="M22.5,12.5L22,14.1H19l4.3-10.7h2.2l4.3,10.7h-3l-0.5-1.6H22.5z M23.3,10.3h2.2l-1.1-3.7h0h0L23.3,10.3z"/>
		<path class="st0" d="M32.5,5.8h-2.1V3.3h7v2.4h-2.1v8.3h-2.7V5.8z"/>
		<path class="st0" d="M39.2,3.3h2.7v10.7h-2.7V3.3z"/>
		<path class="st0" d="M49.8,3.1c3.3,0,5.7,2.6,5.7,5.6c0,3-2.3,5.6-5.7,5.6c-3.4,0-5.6-2.7-5.6-5.4c0-0.7,0.1-1.5,0.4-2.3
			C45.1,5.2,46.8,3.1,49.8,3.1z M49.8,11.9c1.9,0,2.9-1.8,2.9-3.1c0-1.4-0.9-3.2-2.9-3.2c-1.9,0-2.9,1.6-2.9,3.1
			C46.9,10.3,48,11.9,49.8,11.9z"/>
		<path class="st0" d="M57.7,3.3H60l4.1,6.7l0,0l-0.1-6.7h2.6v10.7h-2.4l-4.1-6.5l0,0l0.1,6.5h-2.6V3.3z"/>
		<path class="st0" d="M74.6,3.3H77l4.1,6.7l0,0L81,3.3h2.6v10.7h-2.4l-4.1-6.5l0,0l0.1,6.5h-2.6V3.3z"/>
		<path class="st0" d="M91.5,3.1c3.3,0,5.7,2.6,5.7,5.6c0,3-2.3,5.6-5.7,5.6c-3.4,0-5.6-2.7-5.6-5.4c0-0.7,0.1-1.5,0.4-2.3
			C86.8,5.2,88.5,3.1,91.5,3.1z M91.6,11.9c1.9,0,2.9-1.8,2.9-3.1c0-1.4-0.9-3.2-2.9-3.2c-1.9,0-2.9,1.6-2.9,3.1
			C88.6,10.3,89.7,11.9,91.6,11.9z"/>
		<path class="st0" d="M99.4,3.3h3.4c1.9,0,2.6,0.2,3.3,0.8c0.9,0.7,1.3,1.8,1.3,2.9c0,1.2-0.6,3-2.7,3.4l2.9,3.7h-3.1l-2.5-3.5h0
			v3.5h-2.6V3.3z M102,8.7h1c1.6,0,1.8-1,1.8-1.5c0-1-0.7-1.4-1.8-1.4h-1V8.7z"/>
		<path class="st0" d="M111.1,5.8H109V3.3h7v2.4h-2.1v8.3h-2.7V5.8z"/>
		<path class="st0" d="M117.8,3.3h2.7v4h3.5v-4h2.7v10.7H124V9.8h-3.5v4.3h-2.7V3.3z"/>
	</g>
	<g>
		<path class="st0" d="M113.9,46.1l-2.8,4.9l2.9,3.1l-2.1,1.9l-2.2-2.4c-0.6,0.8-1.9,2.4-4.1,2.4c-2.5,0-5.4-1.9-5.4-5.2
			c0-2.8,2.1-4,3.1-4.6c-0.7-0.9-1.4-1.7-1.4-3.1c0-2.6,2-4.1,4.1-4.1c2.2,0,4.2,1.7,4.2,4c0,2.5-1.8,3.6-2.6,4l1.5,1.7l1.6-2.7
			H113.9z M105,48.6c-0.6,0.3-2,0.9-2,2.4c0,1.4,1.1,2.2,2.2,2.2c1.3,0,1.9-1.1,2.3-1.8L105,48.6z M107.4,43.3
			c0-0.6-0.4-1.4-1.4-1.4c-0.7,0-1.4,0.6-1.4,1.3c0,0.7,0.5,1.3,1.2,1.9C106.5,44.7,107.4,44.3,107.4,43.3z"/>
	</g>
	<g>
		<path class="st0" d="M2.8,81.8h6v2.4H5.4v1.7h3.2v2.4H5.4v1.8h3.3v2.4h-6V81.8z"/>
		<path class="st0" d="M11.2,81.8h2.4l4.1,6.7l0,0l-0.1-6.7h2.6v10.7h-2.4L13.8,86l0,0l0.1,6.5h-2.6V81.8z"/>
		<path class="st0" d="M24.2,84.2h-2.1v-2.4h7v2.4h-2.1v8.3h-2.7V84.2z"/>
		<path class="st0" d="M30.9,81.8h6v2.4h-3.3v1.7h3.2v2.4h-3.2v1.8h3.3v2.4h-6V81.8z"/>
		<path class="st0" d="M39.2,81.8h3.4c1.9,0,2.6,0.2,3.3,0.8c0.9,0.7,1.3,1.8,1.3,2.9c0,1.2-0.6,3-2.7,3.4l2.9,3.7h-3.1L41.9,89h0
			v3.5h-2.6V81.8z M41.9,87.2h1c1.6,0,1.8-1,1.8-1.5c0-1-0.7-1.4-1.8-1.4h-1V87.2z"/>
		<path class="st0" d="M50.9,84.2h-2.1v-2.4h7v2.4h-2.1v8.3h-2.7V84.2z"/>
		<path class="st0" d="M59.9,91l-0.6,1.6h-2.9l4.3-10.7h2.2l4.3,10.7h-3L63.6,91H59.9z M60.7,88.8h2.2l-1.1-3.7h0h0L60.7,88.8z"/>
		<path class="st0" d="M69,81.8h2.7v10.7H69V81.8z"/>
		<path class="st0" d="M74.4,81.8h2.4l4.1,6.7l0,0l-0.1-6.7h2.6v10.7H81L77,86l0,0l0.1,6.5h-2.6V81.8z"/>
		<path class="st0" d="M86.1,81.8h3.5l2.1,7.1h0l2.1-7.1h3.5v10.7h-2.5l0.1-8l0,0l-2.3,8.1h-1.8l-2.3-8.1l0,0l0.1,8h-2.5V81.8z"/>
		<path class="st0" d="M100.1,81.8h6v2.4h-3.3v1.7h3.2v2.4h-3.2v1.8h3.3v2.4h-6V81.8z"/>
		<path class="st0" d="M108.5,81.8h2.4l4.1,6.7l0,0l-0.1-6.7h2.6v10.7h-2.4l-4.1-6.5l0,0l0.1,6.5h-2.6V81.8z"/>
		<path class="st0" d="M121.5,84.2h-2.1v-2.4h7v2.4h-2.1v8.3h-2.7V84.2z"/>
	</g>
	<g>
		<path class="st0" d="M106,69.8c-11.9,0-21.6-9.7-21.6-21.6h1c0,11.4,9.2,20.6,20.6,20.6c11.4,0,20.6-9.2,20.6-20.6
			s-9.2-20.6-20.6-20.6v-1c11.9,0,21.6,9.7,21.6,21.6C127.6,60.1,117.9,69.8,106,69.8z"/>
	</g>
</g>
</svg>
