<svg id="Layer_1" data-name="Layer 1" xmlns="http://www.w3.org/2000/svg" viewBox="0 0 96.09 30"><defs><style>.cls-1{fill:#b5b7b9;}.cls-2{fill:#fff;}</style></defs><title>nav-icons</title><path class="cls-1" d="M17.37,27.5A12.34,12.34,0,0,1,5.19,15,12.34,12.34,0,0,1,17.37,2.5H90.9v25Z"/><circle class="cls-1" cx="17.69" cy="15" r="12.5"/><polygon class="cls-2" points="18.32 19.06 17.79 18.52 21.21 15.1 17.58 11.47 18.11 10.95 22.27 15.1 18.32 19.06"/><rect class="cls-2" x="13.64" y="14.73" width="8.1" height="0.75"/><path class="cls-2" d="M39.55,11h2.67l1.62,5.36h0L45.45,11h2.68v8.14H46.22l.07-6.09,0,0-1.74,6.12H43.16L41.42,13l0,0,.07,6.09H39.55Z"/><path class="cls-2" d="M54.37,10.85a4.23,4.23,0,1,1-4.29,4.32,4.59,4.59,0,0,1,.32-1.74A4.23,4.23,0,0,1,54.37,10.85Zm0,6.62a2.28,2.28,0,0,0,2.19-2.39,2.3,2.3,0,0,0-2.21-2.41,2.27,2.27,0,0,0-2.22,2.38A2.29,2.29,0,0,0,54.41,17.48Z"/><path class="cls-2" d="M60.62,11H63.2a3.61,3.61,0,0,1,2.51.58,2.82,2.82,0,0,1,1,2.22,2.47,2.47,0,0,1-2,2.56l2.21,2.77H64.52l-1.88-2.63h0v2.63h-2Zm2,4.09h.74c1.22,0,1.36-.77,1.36-1.17,0-.74-.54-1.1-1.34-1.1h-.76Z"/><path class="cls-2" d="M68.63,11h4.52v1.83H70.62V14.1h2.45v1.83H70.62v1.4h2.53v1.83H68.63Z"/></svg>