<?xml version="1.0" encoding="utf-8"?>
<!-- Generator: Adobe Illustrator 20.1.0, SVG Export Plug-In . SVG Version: 6.00 Build 0)  -->
<svg version="1.1" id="Layer_1" xmlns="http://www.w3.org/2000/svg" xmlns:xlink="http://www.w3.org/1999/xlink" x="0px" y="0px"
	 viewBox="0 0 30 30" style="enable-background:new 0 0 30 30;" xml:space="preserve">
<style type="text/css">
	.st0{fill:#00202E;}
	.st1{fill:#FFFFFF;stroke:#00202E;stroke-miterlimit:10;}
	.st2{fill:#C7BA7A;stroke:#00202E;stroke-miterlimit:10;}
	.st3{fill:#FFFFFF;}
	.st4{fill:#C8BB7A;}
	.st5{fill:#B8898B;}
	.st6{fill:#7D9DB0;stroke:#00202E;stroke-miterlimit:10;}
	.st7{fill:#C8BB7A;stroke:#00202E;stroke-miterlimit:10;}
	.st8{fill:#B5B7B9;stroke:#00202E;stroke-miterlimit:10;}
	.st9{fill:#826347;}
	.st10{fill:#7D9CAF;}
	.st11{fill:#C7BA7A;}
</style>
<g>
	<g>
		<path class="st5" d="M15,27C8.5,27,3.1,21.7,3,15.2L15.2,3C21.7,3.1,27,8.5,27,15C27,21.6,21.6,27,15,27z"/>
		<path class="st0" d="M15.4,3.5C21.6,3.7,26.5,8.8,26.5,15c0,6.3-5.2,11.5-11.5,11.5c-6.2,0-11.3-4.9-11.5-11.1L15.4,3.5 M15,2.5
			L2.5,15c0,6.9,5.6,12.5,12.5,12.5S27.5,21.9,27.5,15S21.9,2.5,15,2.5L15,2.5z"/>
	</g>
	<path class="st0" d="M23.3,26.1L23,24.6c2.8-2.3,4.5-5.8,4.5-9.6c0-6.9-5.6-12.5-12.5-12.5v25c2.3,0,4.5-0.6,6.3-1.7"/>
	<g>
		<polygon class="st3" points="22.7,25.5 22.7,19.6 25.5,20.3 25.5,26 		"/>
		<path class="st0" d="M23.2,20.3l1.8,0.4v4.7l-1.8-0.3V20.3 M22.2,19v1.3v4.8v0.8l0.8,0.1l1.8,0.3l1.2,0.2v-1.2v-4.7v-0.8l-0.8-0.2
			l-1.8-0.4L22.2,19L22.2,19z"/>
	</g>
	<g>
		<path class="st3" d="M20.3,7c0.8-0.1,1.4,0.1,1.9,0.6c0,1.8,0,4.2,0,6l-1.9-0.8C20.3,11.2,20.3,8.7,20.3,7z"/>
		<path class="st3" d="M23.2,8.6c1.5,1.9,1.7,4.1,1.8,6.4l-1.8-0.9C23.2,12.6,23.2,10.2,23.2,8.6z"/>
		<path class="st3" d="M19.3,7.5c0,1.7,0,5.1,0,5.1l-1.8-0.8C17.7,9.4,19,7.7,19.3,7.5z"/>
	</g>
	<g>
		<polygon class="st3" points="20.3,19.6 20.3,24.6 22.3,24.9 22.3,20 		"/>
		<polygon class="st3" points="22.3,19.2 22.3,17.3 20.3,16.7 20.3,18.6 		"/>
	</g>
	<g>
		<polygon class="st3" points="25,19.9 25,18.3 23.2,17.7 23.2,19.4 		"/>
	</g>
	<g>
		<polygon class="st3" points="19.3,18.4 19.3,16.3 17.5,15.7 17.5,17.9 		"/>
		<polygon class="st3" points="17.5,18.9 17.5,24.1 19.3,24.4 19.3,19.3 		"/>
	</g>
</g>
</svg>
