<?xml version="1.0" encoding="utf-8"?>
<!-- Generator: Adobe Illustrator 20.1.0, SVG Export Plug-In . SVG Version: 6.00 Build 0)  -->
<svg version="1.1" id="Layer_1" xmlns="http://www.w3.org/2000/svg" xmlns:xlink="http://www.w3.org/1999/xlink" x="0px" y="0px"
	 viewBox="0 0 30 30" style="enable-background:new 0 0 30 30;" xml:space="preserve">
<style type="text/css">
	.st0{fill:#00202E;}
	.st1{fill:#FFFFFF;stroke:#00202E;stroke-miterlimit:10;}
	.st2{fill:#C7BA7A;stroke:#00202E;stroke-miterlimit:10;}
	.st3{fill:#FFFFFF;}
	.st4{fill:#C8BB7A;}
	.st5{fill:#B8898B;}
	.st6{fill:#7D9DB0;stroke:#00202E;stroke-miterlimit:10;}
	.st7{fill:#C8BB7A;stroke:#00202E;stroke-miterlimit:10;}
	.st8{fill:#B5B7B9;stroke:#00202E;stroke-miterlimit:10;}
	.st9{fill:#826347;}
	.st10{fill:#7D9CAF;}
	.st11{fill:#C7BA7A;}
</style>
<g>
	<g>
		<path class="st0" d="M27.5,15c0,6.9-5.6,12.5-12.5,12.5S2.5,21.9,2.5,15L15,2.5C21.9,2.5,27.5,8.1,27.5,15z"/>
	</g>
	<polygon class="st3" points="3.6,15.2 15,17.7 18.1,14.6 15.3,3.5 	"/>
	<g>
		<polygon class="st4" points="14.3,18.7 19,14 21.1,17.8 18.1,20.8 		"/>
		<path class="st0" d="M18.8,14.9l1.6,2.9L18,20.2l-2.9-1.6L18.8,14.9 M19.1,13.2l-0.9,0.9l-3.7,3.7l-0.9,0.9l1.2,0.6l2.9,1.6
			l0.7,0.4l0.5-0.5l2.4-2.4l0.5-0.5l-0.4-0.7l-1.6-2.9L19.1,13.2L19.1,13.2z"/>
	</g>
	<g>
		<polygon class="st4" points="17.7,20.6 20.9,17.4 27.3,23.9 24.2,27 		"/>
		<path class="st0" d="M20.9,18.1l5.7,5.7l-2.4,2.4l-5.7-5.7L20.9,18.1 M20.9,16.7l-0.7,0.7l-2.4,2.4L17,20.6l0.7,0.7l5.7,5.7
			l0.7,0.7l0.7-0.7l2.4-2.4l0.7-0.7l-0.7-0.7l-5.7-5.7L20.9,16.7L20.9,16.7z"/>
	</g>
</g>
</svg>
