<svg id="Layer_1" data-name="Layer 1" xmlns="http://www.w3.org/2000/svg" viewBox="0 0 96.09 30"><defs><style>.cls-1{fill:#00202e;}.cls-2{fill:#fff;}</style></defs><title>nav-icons</title><path class="cls-1" d="M17.17,27.5a12.5,12.5,0,1,1,0-25H93.35v25Z"/><circle class="cls-1" cx="17.06" cy="15" r="12.5"/><polygon class="cls-2" points="17.71 19.22 17.16 18.66 20.72 15.11 16.95 11.34 17.5 10.78 21.82 15.11 17.71 19.22"/><rect class="cls-2" x="12.85" y="14.72" width="8.42" height="0.78"/><path class="cls-2" d="M38.47,13.32c0-.29-.11-.82-.78-.82a.7.7,0,0,0-.74.66c0,.5.23.61,1.75,1.29s2,1.44,2,2.42c0,1.24-.71,2.6-3,2.6-2.45,0-3.05-1.6-3.05-2.69v-.27h2.15c0,1,.61,1.16.88,1.16a.82.82,0,0,0,.82-.81c0-.56-.35-.7-1.66-1.25-.59-.24-2.07-.83-2.07-2.42a2.75,2.75,0,0,1,3-2.49,3,3,0,0,1,2.29,1,2.56,2.56,0,0,1,.56,1.67Z"/><path class="cls-2" d="M44.7,10.85V16c0,.57,0,1.61,1.1,1.61s1.08-.94,1.08-1.61V10.85H49V16a3.23,3.23,0,0,1-.85,2.6,3.16,3.16,0,0,1-2.37.92,3.41,3.41,0,0,1-2.44-.9A3.22,3.22,0,0,1,42.54,16V10.85Z"/><path class="cls-2" d="M51.4,10.85H54c1.43,0,2.09.14,2.71.82a2,2,0,0,1,.5,1.39,1.91,1.91,0,0,1-1,1.7,2,2,0,0,1,1.4,2,2.44,2.44,0,0,1-.78,1.84c-.78.65-1.34.73-2.77.73H51.4Zm2.07,3.21h.77c.3,0,.91,0,.91-.68s-.58-.64-.91-.64h-.77Zm0,3.35h1c.27,0,1.08,0,1.08-.81s-.73-.73-1.08-.73h-1Z"/><path class="cls-2" d="M59.66,10.85h2.78l1.68,5.57h0l1.66-5.57h2.79v8.46h-2L66.67,13l0,0-1.81,6.36H63.41L61.61,13l0,0,.07,6.34h-2Z"/><path class="cls-2" d="M71,10.85h2.16v8.46H71Z"/><path class="cls-2" d="M76.55,12.75H74.88v-1.9h5.49v1.9H78.71v6.56H76.55Z"/></svg>