<?xml version="1.0" encoding="utf-8"?>
<!-- Generator: Adobe Illustrator 20.1.0, SVG Export Plug-In . SVG Version: 6.00 Build 0)  -->
<svg version="1.1" id="Layer_1" xmlns="http://www.w3.org/2000/svg" xmlns:xlink="http://www.w3.org/1999/xlink" x="0px" y="0px"
	 viewBox="0 0 30 30" style="enable-background:new 0 0 30 30;" xml:space="preserve">
<style type="text/css">
	.st0{fill:#00202E;}
	.st1{fill:#FFFFFF;stroke:#00202E;stroke-miterlimit:10;}
	.st2{fill:#C7BA7A;stroke:#00202E;stroke-miterlimit:10;}
	.st3{fill:#FFFFFF;}
	.st4{fill:#C8BB7A;}
	.st5{fill:#B8898B;}
	.st6{fill:#7D9DB0;stroke:#00202E;stroke-miterlimit:10;}
	.st7{fill:#C8BB7A;stroke:#00202E;stroke-miterlimit:10;}
	.st8{fill:#B5B7B9;stroke:#00202E;stroke-miterlimit:10;}
	.st9{fill:#826347;}
	.st10{fill:#7D9CAF;}
	.st11{fill:#C7BA7A;}
</style>
<path class="st11" d="M15,2.5C8.1,2.5,2.5,8.1,2.5,15c0,6.9,5.6,12.5,12.5,12.5c6.9,0,12.5-5.6,12.5-12.5C27.5,8.1,21.9,2.5,15,2.5z
	 M20,12.5c0,0.1,0,0.2,0,0.3c0,3.4-2.6,7.3-7.3,7.3c-1.4,0-2.8-0.4-3.9-1.2c0.2,0,0.4,0,0.6,0c1.2,0,2.3-0.4,3.2-1.1
	c-1.1,0-2.1-0.8-2.4-1.8c0.2,0,0.3,0,0.5,0c0.2,0,0.5,0,0.7-0.1c-1.2-0.2-2.1-1.3-2.1-2.5c0,0,0,0,0,0c0.3,0.2,0.7,0.3,1.2,0.3
	c-0.7-0.5-1.1-1.2-1.1-2.1c0-0.5,0.1-0.9,0.3-1.3c1.3,1.6,3.2,2.6,5.3,2.7c0-0.2-0.1-0.4-0.1-0.6c0-1.4,1.1-2.6,2.6-2.6
	c0.7,0,1.4,0.3,1.9,0.8c0.6-0.1,1.1-0.3,1.6-0.6c-0.2,0.6-0.6,1.1-1.1,1.4c0.5-0.1,1-0.2,1.5-0.4C20.9,11.6,20.5,12.1,20,12.5z"/>
</svg>
